G04 EAGLE Gerber RS-274X export*
G75*
%MOMM*%
%FSLAX34Y34*%
%LPD*%
%INBottom Copper*%
%IPPOS*%
%AMOC8*
5,1,8,0,0,1.08239X$1,22.5*%
G01*
%ADD10R,1.524000X1.524000*%
%ADD11P,1.649562X8X112.500000*%
%ADD12R,1.676400X1.676400*%
%ADD13C,1.676400*%
%ADD14C,4.016000*%
%ADD15C,1.960000*%
%ADD16C,4.445000*%
%ADD17C,0.609600*%
%ADD18C,0.254000*%


D10*
X447300Y427400D03*
D11*
X421900Y427400D03*
X447300Y452800D03*
X421900Y452800D03*
X447300Y478200D03*
X421900Y478200D03*
X447300Y503600D03*
X421900Y503600D03*
X447300Y529000D03*
X421900Y529000D03*
X447300Y554400D03*
X421900Y554400D03*
X447300Y579800D03*
X421900Y579800D03*
X447300Y605200D03*
X421900Y605200D03*
X447300Y630600D03*
X421900Y630600D03*
X447300Y656000D03*
X421900Y656000D03*
X447300Y681400D03*
X421900Y681400D03*
X447300Y706800D03*
X421900Y706800D03*
X447300Y732200D03*
X421900Y732200D03*
X447300Y757600D03*
X421900Y757600D03*
X447300Y783000D03*
X421900Y783000D03*
X447300Y808400D03*
X421900Y808400D03*
X447300Y833800D03*
X421900Y833800D03*
X447300Y859200D03*
X421900Y859200D03*
D10*
X193300Y427400D03*
D11*
X167900Y427400D03*
X193300Y452800D03*
X167900Y452800D03*
X193300Y478200D03*
X167900Y478200D03*
X193300Y503600D03*
X167900Y503600D03*
X193300Y529000D03*
X167900Y529000D03*
X193300Y554400D03*
X167900Y554400D03*
X193300Y579800D03*
X167900Y579800D03*
X193300Y605200D03*
X167900Y605200D03*
X193300Y630600D03*
X167900Y630600D03*
X193300Y656000D03*
X167900Y656000D03*
X193300Y681400D03*
X167900Y681400D03*
X193300Y706800D03*
X167900Y706800D03*
X193300Y732200D03*
X167900Y732200D03*
X193300Y757600D03*
X167900Y757600D03*
X193300Y783000D03*
X167900Y783000D03*
X193300Y808400D03*
X167900Y808400D03*
X193300Y833800D03*
X167900Y833800D03*
X193300Y859200D03*
X167900Y859200D03*
D12*
X673100Y889000D03*
D13*
X698500Y889000D03*
X723900Y889000D03*
X749300Y889000D03*
X774700Y889000D03*
X800100Y889000D03*
X825500Y889000D03*
X850900Y889000D03*
X876300Y889000D03*
X901700Y889000D03*
X927100Y889000D03*
X952500Y889000D03*
X977900Y889000D03*
X1003300Y889000D03*
X1028700Y889000D03*
X1054100Y889000D03*
X1079500Y889000D03*
X1104900Y889000D03*
X1130300Y889000D03*
X1155700Y889000D03*
D12*
X673100Y127000D03*
D13*
X698500Y127000D03*
X723900Y127000D03*
X749300Y127000D03*
X774700Y127000D03*
X800100Y127000D03*
X825500Y127000D03*
X850900Y127000D03*
X876300Y127000D03*
X901700Y127000D03*
X927100Y127000D03*
X952500Y127000D03*
X977900Y127000D03*
X1003300Y127000D03*
X1028700Y127000D03*
X1054100Y127000D03*
X1079500Y127000D03*
X1104900Y127000D03*
X1130300Y127000D03*
X1155700Y127000D03*
D14*
X628650Y127000D03*
X1200150Y127000D03*
X628650Y889000D03*
X1200150Y889000D03*
D15*
X557800Y190100D03*
X557800Y140100D03*
X432800Y140100D03*
X432800Y190100D03*
X367300Y190100D03*
X367300Y140100D03*
X242300Y140100D03*
X242300Y190100D03*
D16*
X38100Y38100D03*
X38100Y965200D03*
X1231900Y965200D03*
X1231900Y38100D03*
D17*
X381000Y279400D03*
X292100Y279400D03*
X139700Y139700D03*
X266700Y609600D03*
D18*
X635000Y241300D02*
X749300Y127000D01*
X442566Y466770D02*
X435870Y473466D01*
X435870Y489630D02*
X421900Y503600D01*
X435870Y489630D02*
X435870Y473466D01*
X449495Y466770D02*
X635000Y281265D01*
X449495Y466770D02*
X442566Y466770D01*
X635000Y281265D02*
X635000Y241300D01*
X647700Y254000D02*
X774700Y127000D01*
X647700Y254000D02*
X647700Y482600D01*
X431136Y529000D02*
X421900Y529000D01*
X431136Y529000D02*
X442566Y517570D01*
X612730Y517570D02*
X647700Y482600D01*
X612730Y517570D02*
X442566Y517570D01*
X685800Y241300D02*
X800100Y127000D01*
X685800Y241300D02*
X685800Y495300D01*
X431136Y554400D02*
X421900Y554400D01*
X431136Y554400D02*
X442566Y542970D01*
X638130Y542970D02*
X685800Y495300D01*
X638130Y542970D02*
X442566Y542970D01*
M02*
