G04 EAGLE Gerber RS-274X export*
G75*
%MOMM*%
%FSLAX34Y34*%
%LPD*%
%INTop Copper*%
%IPPOS*%
%AMOC8*
5,1,8,0,0,1.08239X$1,22.5*%
G01*
%ADD10R,1.524000X1.524000*%
%ADD11P,1.649562X8X112.500000*%
%ADD12R,1.676400X1.676400*%
%ADD13C,1.676400*%
%ADD14C,4.016000*%
%ADD15C,1.960000*%
%ADD16R,1.600000X1.803000*%
%ADD17C,4.445000*%
%ADD18C,1.016000*%
%ADD19R,1.143000X1.270000*%
%ADD20C,0.609600*%
%ADD21C,0.254000*%

G36*
X1267244Y1009008D02*
X1267244Y1009008D01*
X1267237Y1009127D01*
X1267224Y1009165D01*
X1267219Y1009206D01*
X1267176Y1009316D01*
X1267139Y1009429D01*
X1267117Y1009464D01*
X1267102Y1009501D01*
X1267033Y1009597D01*
X1266969Y1009698D01*
X1266939Y1009726D01*
X1266916Y1009759D01*
X1266824Y1009835D01*
X1266737Y1009916D01*
X1266702Y1009936D01*
X1266671Y1009961D01*
X1266563Y1010012D01*
X1266459Y1010070D01*
X1266419Y1010080D01*
X1266383Y1010097D01*
X1266266Y1010119D01*
X1266151Y1010149D01*
X1266091Y1010153D01*
X1266071Y1010157D01*
X1266050Y1010155D01*
X1265990Y1010159D01*
X3810Y1010159D01*
X3692Y1010144D01*
X3573Y1010137D01*
X3535Y1010124D01*
X3494Y1010119D01*
X3384Y1010076D01*
X3271Y1010039D01*
X3236Y1010017D01*
X3199Y1010002D01*
X3103Y1009933D01*
X3002Y1009869D01*
X2974Y1009839D01*
X2941Y1009816D01*
X2865Y1009724D01*
X2784Y1009637D01*
X2764Y1009602D01*
X2739Y1009571D01*
X2688Y1009463D01*
X2630Y1009359D01*
X2620Y1009319D01*
X2603Y1009283D01*
X2581Y1009166D01*
X2551Y1009051D01*
X2547Y1008991D01*
X2543Y1008971D01*
X2545Y1008950D01*
X2541Y1008890D01*
X2541Y3810D01*
X2556Y3692D01*
X2563Y3573D01*
X2576Y3535D01*
X2581Y3494D01*
X2624Y3384D01*
X2661Y3271D01*
X2683Y3236D01*
X2698Y3199D01*
X2767Y3103D01*
X2831Y3002D01*
X2861Y2974D01*
X2884Y2941D01*
X2976Y2865D01*
X3063Y2784D01*
X3098Y2764D01*
X3129Y2739D01*
X3237Y2688D01*
X3341Y2630D01*
X3381Y2620D01*
X3417Y2603D01*
X3534Y2581D01*
X3649Y2551D01*
X3709Y2547D01*
X3729Y2543D01*
X3750Y2545D01*
X3810Y2541D01*
X1265990Y2541D01*
X1266108Y2556D01*
X1266227Y2563D01*
X1266265Y2576D01*
X1266306Y2581D01*
X1266416Y2624D01*
X1266529Y2661D01*
X1266564Y2683D01*
X1266601Y2698D01*
X1266697Y2767D01*
X1266798Y2831D01*
X1266826Y2861D01*
X1266859Y2884D01*
X1266935Y2976D01*
X1267016Y3063D01*
X1267036Y3098D01*
X1267061Y3129D01*
X1267112Y3237D01*
X1267170Y3341D01*
X1267180Y3381D01*
X1267197Y3417D01*
X1267219Y3534D01*
X1267249Y3649D01*
X1267253Y3709D01*
X1267257Y3729D01*
X1267255Y3750D01*
X1267259Y3810D01*
X1267259Y1008890D01*
X1267244Y1009008D01*
G37*
%LPC*%
G36*
X74789Y925831D02*
X74789Y925831D01*
X74907Y925846D01*
X75026Y925853D01*
X75064Y925866D01*
X75104Y925871D01*
X75215Y925914D01*
X75328Y925951D01*
X75363Y925973D01*
X75400Y925988D01*
X75496Y926058D01*
X75597Y926121D01*
X75625Y926151D01*
X75657Y926174D01*
X75733Y926266D01*
X75815Y926353D01*
X75834Y926388D01*
X75860Y926419D01*
X75911Y926527D01*
X75968Y926631D01*
X75979Y926671D01*
X75996Y926707D01*
X76018Y926824D01*
X76048Y926939D01*
X76052Y927000D01*
X76056Y927020D01*
X76054Y927040D01*
X76058Y927100D01*
X76058Y976631D01*
X1192531Y976631D01*
X1192531Y952500D01*
X1192543Y952402D01*
X1192546Y952303D01*
X1192563Y952245D01*
X1192571Y952184D01*
X1192607Y952092D01*
X1192635Y951997D01*
X1192665Y951945D01*
X1192688Y951889D01*
X1192746Y951809D01*
X1192796Y951723D01*
X1192862Y951648D01*
X1192874Y951631D01*
X1192884Y951624D01*
X1192903Y951603D01*
X1218303Y926203D01*
X1218381Y926142D01*
X1218453Y926074D01*
X1218506Y926045D01*
X1218554Y926008D01*
X1218645Y925968D01*
X1218731Y925920D01*
X1218790Y925905D01*
X1218846Y925881D01*
X1218944Y925866D01*
X1219039Y925841D01*
X1219139Y925835D01*
X1219160Y925831D01*
X1219172Y925833D01*
X1219200Y925831D01*
X1243331Y925831D01*
X1243331Y64769D01*
X1237615Y64769D01*
X1237598Y64767D01*
X1237581Y64769D01*
X1237441Y64747D01*
X1237300Y64729D01*
X1237284Y64723D01*
X1237267Y64721D01*
X1237136Y64665D01*
X1237004Y64612D01*
X1236990Y64602D01*
X1236975Y64596D01*
X1236862Y64509D01*
X1236747Y64426D01*
X1236736Y64412D01*
X1236722Y64402D01*
X1236635Y64290D01*
X1236544Y64181D01*
X1236537Y64165D01*
X1236526Y64152D01*
X1236469Y64021D01*
X1236409Y63893D01*
X1236405Y63876D01*
X1236398Y63860D01*
X1236375Y63719D01*
X1236349Y63581D01*
X1236350Y63563D01*
X1236347Y63547D01*
X1236360Y63404D01*
X1236369Y63263D01*
X1236374Y63247D01*
X1236375Y63230D01*
X1236423Y63095D01*
X1236467Y62961D01*
X1236476Y62946D01*
X1236481Y62930D01*
X1236561Y62812D01*
X1236637Y62692D01*
X1236649Y62680D01*
X1236659Y62666D01*
X1236764Y62572D01*
X1236868Y62474D01*
X1236883Y62466D01*
X1236896Y62454D01*
X1237022Y62389D01*
X1237147Y62320D01*
X1237163Y62316D01*
X1237179Y62308D01*
X1237333Y62263D01*
X1238767Y61935D01*
X1241392Y61017D01*
X1243899Y59810D01*
X1246254Y58330D01*
X1248429Y56595D01*
X1250395Y54629D01*
X1252130Y52454D01*
X1253610Y50099D01*
X1254817Y47592D01*
X1255735Y44967D01*
X1256354Y42255D01*
X1256536Y40639D01*
X1233170Y40639D01*
X1233052Y40624D01*
X1232933Y40617D01*
X1232895Y40604D01*
X1232855Y40599D01*
X1232744Y40556D01*
X1232631Y40519D01*
X1232597Y40497D01*
X1232559Y40482D01*
X1232463Y40412D01*
X1232362Y40349D01*
X1232334Y40319D01*
X1232302Y40295D01*
X1232226Y40204D01*
X1232144Y40117D01*
X1232125Y40082D01*
X1232099Y40051D01*
X1232048Y39943D01*
X1231991Y39839D01*
X1231980Y39799D01*
X1231963Y39763D01*
X1231941Y39646D01*
X1231911Y39531D01*
X1231907Y39470D01*
X1231903Y39450D01*
X1231904Y39435D01*
X1231903Y39429D01*
X1231904Y39420D01*
X1231901Y39370D01*
X1231901Y38099D01*
X1231899Y38099D01*
X1231899Y39370D01*
X1231884Y39488D01*
X1231877Y39607D01*
X1231864Y39645D01*
X1231859Y39685D01*
X1231815Y39796D01*
X1231779Y39909D01*
X1231757Y39944D01*
X1231742Y39981D01*
X1231672Y40077D01*
X1231609Y40178D01*
X1231579Y40206D01*
X1231555Y40239D01*
X1231464Y40314D01*
X1231377Y40396D01*
X1231342Y40416D01*
X1231310Y40441D01*
X1231203Y40492D01*
X1231098Y40550D01*
X1231059Y40560D01*
X1231023Y40577D01*
X1230906Y40599D01*
X1230791Y40629D01*
X1230730Y40633D01*
X1230710Y40637D01*
X1230690Y40635D01*
X1230630Y40639D01*
X1207264Y40639D01*
X1207446Y42255D01*
X1208065Y44967D01*
X1208983Y47592D01*
X1210190Y50099D01*
X1211670Y52454D01*
X1213405Y54629D01*
X1215371Y56595D01*
X1217546Y58330D01*
X1219901Y59810D01*
X1222408Y61017D01*
X1225033Y61935D01*
X1226467Y62263D01*
X1226483Y62268D01*
X1226500Y62271D01*
X1226632Y62323D01*
X1226766Y62372D01*
X1226780Y62381D01*
X1226796Y62388D01*
X1226911Y62471D01*
X1227028Y62552D01*
X1227039Y62564D01*
X1227053Y62574D01*
X1227144Y62684D01*
X1227237Y62791D01*
X1227245Y62806D01*
X1227256Y62819D01*
X1227316Y62948D01*
X1227381Y63075D01*
X1227384Y63092D01*
X1227391Y63107D01*
X1227418Y63246D01*
X1227449Y63386D01*
X1227448Y63403D01*
X1227451Y63420D01*
X1227442Y63561D01*
X1227437Y63703D01*
X1227433Y63720D01*
X1227432Y63737D01*
X1227388Y63872D01*
X1227348Y64008D01*
X1227339Y64023D01*
X1227333Y64039D01*
X1227257Y64160D01*
X1227185Y64282D01*
X1227173Y64294D01*
X1227163Y64308D01*
X1227060Y64406D01*
X1226959Y64506D01*
X1226944Y64514D01*
X1226932Y64526D01*
X1226808Y64594D01*
X1226685Y64667D01*
X1226668Y64671D01*
X1226653Y64680D01*
X1226516Y64715D01*
X1226379Y64754D01*
X1226362Y64755D01*
X1226345Y64759D01*
X1226185Y64769D01*
X1193800Y64769D01*
X1193682Y64754D01*
X1193563Y64747D01*
X1193525Y64734D01*
X1193484Y64729D01*
X1193374Y64686D01*
X1193261Y64649D01*
X1193226Y64627D01*
X1193189Y64612D01*
X1193093Y64543D01*
X1192992Y64479D01*
X1192964Y64449D01*
X1192931Y64426D01*
X1192856Y64334D01*
X1192774Y64247D01*
X1192754Y64212D01*
X1192729Y64181D01*
X1192678Y64073D01*
X1192620Y63969D01*
X1192610Y63929D01*
X1192593Y63893D01*
X1192571Y63776D01*
X1192541Y63661D01*
X1192537Y63601D01*
X1192533Y63581D01*
X1192535Y63560D01*
X1192534Y63548D01*
X1192533Y63545D01*
X1192533Y63543D01*
X1192531Y63500D01*
X1192531Y26669D01*
X77469Y26669D01*
X77469Y63500D01*
X77454Y63618D01*
X77447Y63737D01*
X77434Y63775D01*
X77429Y63816D01*
X77386Y63926D01*
X77349Y64039D01*
X77327Y64074D01*
X77312Y64111D01*
X77243Y64207D01*
X77179Y64308D01*
X77149Y64336D01*
X77126Y64369D01*
X77034Y64445D01*
X76947Y64526D01*
X76912Y64546D01*
X76881Y64571D01*
X76773Y64622D01*
X76669Y64680D01*
X76629Y64690D01*
X76593Y64707D01*
X76476Y64729D01*
X76361Y64759D01*
X76301Y64763D01*
X76281Y64767D01*
X76260Y64765D01*
X76200Y64769D01*
X43815Y64769D01*
X43798Y64767D01*
X43781Y64769D01*
X43641Y64747D01*
X43500Y64729D01*
X43484Y64723D01*
X43467Y64721D01*
X43336Y64665D01*
X43204Y64612D01*
X43190Y64602D01*
X43175Y64596D01*
X43062Y64509D01*
X42947Y64426D01*
X42936Y64412D01*
X42922Y64402D01*
X42835Y64290D01*
X42744Y64181D01*
X42737Y64165D01*
X42726Y64152D01*
X42669Y64021D01*
X42609Y63893D01*
X42605Y63876D01*
X42598Y63860D01*
X42575Y63719D01*
X42549Y63581D01*
X42550Y63563D01*
X42547Y63547D01*
X42560Y63404D01*
X42569Y63263D01*
X42574Y63247D01*
X42575Y63230D01*
X42623Y63095D01*
X42667Y62961D01*
X42676Y62946D01*
X42681Y62930D01*
X42761Y62812D01*
X42837Y62692D01*
X42849Y62680D01*
X42859Y62666D01*
X42965Y62572D01*
X43068Y62474D01*
X43083Y62466D01*
X43096Y62454D01*
X43222Y62389D01*
X43347Y62320D01*
X43363Y62316D01*
X43379Y62308D01*
X43533Y62263D01*
X44967Y61935D01*
X47592Y61017D01*
X50099Y59810D01*
X52454Y58330D01*
X54629Y56595D01*
X56595Y54629D01*
X58330Y52454D01*
X59810Y50099D01*
X61017Y47592D01*
X61935Y44967D01*
X62554Y42255D01*
X62736Y40639D01*
X39370Y40639D01*
X39252Y40624D01*
X39133Y40617D01*
X39095Y40604D01*
X39055Y40599D01*
X38944Y40556D01*
X38831Y40519D01*
X38797Y40497D01*
X38759Y40482D01*
X38663Y40412D01*
X38562Y40349D01*
X38534Y40319D01*
X38502Y40295D01*
X38426Y40204D01*
X38344Y40117D01*
X38325Y40082D01*
X38299Y40051D01*
X38248Y39943D01*
X38191Y39839D01*
X38180Y39799D01*
X38163Y39763D01*
X38141Y39646D01*
X38111Y39531D01*
X38107Y39470D01*
X38103Y39450D01*
X38104Y39435D01*
X38103Y39429D01*
X38104Y39420D01*
X38101Y39370D01*
X38101Y38099D01*
X38099Y38099D01*
X38099Y39370D01*
X38084Y39488D01*
X38077Y39607D01*
X38064Y39645D01*
X38059Y39685D01*
X38015Y39796D01*
X37979Y39909D01*
X37957Y39944D01*
X37942Y39981D01*
X37872Y40077D01*
X37809Y40178D01*
X37779Y40206D01*
X37755Y40239D01*
X37664Y40314D01*
X37577Y40396D01*
X37542Y40416D01*
X37510Y40441D01*
X37403Y40492D01*
X37298Y40550D01*
X37259Y40560D01*
X37223Y40577D01*
X37106Y40599D01*
X36991Y40629D01*
X36930Y40633D01*
X36910Y40637D01*
X36890Y40635D01*
X36830Y40639D01*
X13464Y40639D01*
X13646Y42255D01*
X14265Y44967D01*
X15183Y47592D01*
X16390Y50099D01*
X17870Y52454D01*
X19605Y54629D01*
X21571Y56595D01*
X23746Y58330D01*
X26101Y59810D01*
X28608Y61017D01*
X31233Y61935D01*
X32667Y62263D01*
X32683Y62268D01*
X32700Y62271D01*
X32832Y62323D01*
X32966Y62372D01*
X32980Y62381D01*
X32996Y62388D01*
X33111Y62471D01*
X33228Y62552D01*
X33239Y62564D01*
X33253Y62574D01*
X33344Y62684D01*
X33437Y62791D01*
X33445Y62806D01*
X33456Y62819D01*
X33516Y62948D01*
X33580Y63075D01*
X33584Y63092D01*
X33591Y63107D01*
X33618Y63246D01*
X33649Y63386D01*
X33648Y63403D01*
X33651Y63420D01*
X33642Y63561D01*
X33637Y63703D01*
X33633Y63720D01*
X33631Y63737D01*
X33588Y63872D01*
X33548Y64008D01*
X33539Y64023D01*
X33533Y64039D01*
X33458Y64159D01*
X33385Y64282D01*
X33372Y64294D01*
X33363Y64308D01*
X33260Y64406D01*
X33159Y64506D01*
X33144Y64514D01*
X33132Y64526D01*
X33008Y64594D01*
X32885Y64667D01*
X32868Y64671D01*
X32853Y64680D01*
X32716Y64715D01*
X32579Y64754D01*
X32562Y64755D01*
X32545Y64759D01*
X32385Y64769D01*
X26669Y64769D01*
X26669Y925831D01*
X74789Y925831D01*
G37*
%LPD*%
%LPC*%
G36*
X40639Y967739D02*
X40639Y967739D01*
X40639Y989836D01*
X42255Y989654D01*
X44967Y989035D01*
X47592Y988117D01*
X50099Y986910D01*
X52454Y985430D01*
X54629Y983695D01*
X56595Y981729D01*
X58330Y979554D01*
X59810Y977199D01*
X61017Y974692D01*
X61935Y972067D01*
X62554Y969355D01*
X62736Y967739D01*
X40639Y967739D01*
G37*
%LPD*%
%LPC*%
G36*
X1234439Y967739D02*
X1234439Y967739D01*
X1234439Y989836D01*
X1236055Y989654D01*
X1238767Y989035D01*
X1241392Y988117D01*
X1243899Y986910D01*
X1246254Y985430D01*
X1248429Y983695D01*
X1250395Y981729D01*
X1252130Y979554D01*
X1253610Y977199D01*
X1254817Y974692D01*
X1255735Y972067D01*
X1256354Y969355D01*
X1256536Y967739D01*
X1234439Y967739D01*
G37*
%LPD*%
%LPC*%
G36*
X13464Y967739D02*
X13464Y967739D01*
X13646Y969355D01*
X14265Y972067D01*
X15183Y974692D01*
X16390Y977199D01*
X17870Y979554D01*
X19605Y981729D01*
X21571Y983695D01*
X23746Y985430D01*
X26101Y986910D01*
X28608Y988117D01*
X31233Y989035D01*
X33945Y989654D01*
X35561Y989836D01*
X35561Y967739D01*
X13464Y967739D01*
G37*
%LPD*%
%LPC*%
G36*
X1207264Y967739D02*
X1207264Y967739D01*
X1207446Y969355D01*
X1208065Y972067D01*
X1208983Y974692D01*
X1210190Y977199D01*
X1211670Y979554D01*
X1213405Y981729D01*
X1215371Y983695D01*
X1217546Y985430D01*
X1219901Y986910D01*
X1222408Y988117D01*
X1225033Y989035D01*
X1227745Y989654D01*
X1229361Y989836D01*
X1229361Y967739D01*
X1207264Y967739D01*
G37*
%LPD*%
%LPC*%
G36*
X1234439Y962661D02*
X1234439Y962661D01*
X1256536Y962661D01*
X1256354Y961045D01*
X1255735Y958333D01*
X1254817Y955708D01*
X1253610Y953201D01*
X1252130Y950846D01*
X1250395Y948671D01*
X1248429Y946705D01*
X1246254Y944970D01*
X1243899Y943490D01*
X1241392Y942283D01*
X1238767Y941365D01*
X1236055Y940746D01*
X1234439Y940564D01*
X1234439Y962661D01*
G37*
%LPD*%
%LPC*%
G36*
X40639Y962661D02*
X40639Y962661D01*
X62736Y962661D01*
X62554Y961045D01*
X61935Y958333D01*
X61017Y955708D01*
X59810Y953201D01*
X58330Y950846D01*
X56595Y948671D01*
X54629Y946705D01*
X52454Y944970D01*
X50099Y943490D01*
X47592Y942283D01*
X44967Y941365D01*
X42255Y940746D01*
X40639Y940564D01*
X40639Y962661D01*
G37*
%LPD*%
%LPC*%
G36*
X1234439Y35561D02*
X1234439Y35561D01*
X1256536Y35561D01*
X1256354Y33945D01*
X1255735Y31233D01*
X1254817Y28608D01*
X1253610Y26101D01*
X1252130Y23746D01*
X1250395Y21571D01*
X1248429Y19605D01*
X1246254Y17870D01*
X1243899Y16390D01*
X1241392Y15183D01*
X1238767Y14265D01*
X1236055Y13646D01*
X1234439Y13464D01*
X1234439Y35561D01*
G37*
%LPD*%
%LPC*%
G36*
X40639Y35561D02*
X40639Y35561D01*
X62736Y35561D01*
X62554Y33945D01*
X61935Y31233D01*
X61017Y28608D01*
X59810Y26101D01*
X58330Y23746D01*
X56595Y21571D01*
X54629Y19605D01*
X52454Y17870D01*
X50099Y16390D01*
X47592Y15183D01*
X44967Y14265D01*
X42255Y13646D01*
X40639Y13464D01*
X40639Y35561D01*
G37*
%LPD*%
%LPC*%
G36*
X1227745Y940746D02*
X1227745Y940746D01*
X1225033Y941365D01*
X1222408Y942283D01*
X1219901Y943490D01*
X1217546Y944970D01*
X1215371Y946705D01*
X1213405Y948671D01*
X1211670Y950846D01*
X1210190Y953201D01*
X1208983Y955708D01*
X1208065Y958333D01*
X1207446Y961045D01*
X1207264Y962661D01*
X1229361Y962661D01*
X1229361Y940564D01*
X1227745Y940746D01*
G37*
%LPD*%
%LPC*%
G36*
X33945Y940746D02*
X33945Y940746D01*
X31233Y941365D01*
X28608Y942283D01*
X26101Y943490D01*
X23746Y944970D01*
X21571Y946705D01*
X19605Y948671D01*
X17870Y950846D01*
X16390Y953201D01*
X15183Y955708D01*
X14265Y958333D01*
X13646Y961045D01*
X13464Y962661D01*
X35561Y962661D01*
X35561Y940564D01*
X33945Y940746D01*
G37*
%LPD*%
%LPC*%
G36*
X1227745Y13646D02*
X1227745Y13646D01*
X1225033Y14265D01*
X1222408Y15183D01*
X1219901Y16390D01*
X1217546Y17870D01*
X1215371Y19605D01*
X1213405Y21571D01*
X1211670Y23746D01*
X1210190Y26101D01*
X1208983Y28608D01*
X1208065Y31233D01*
X1207446Y33945D01*
X1207264Y35561D01*
X1229361Y35561D01*
X1229361Y13464D01*
X1227745Y13646D01*
G37*
%LPD*%
%LPC*%
G36*
X33945Y13646D02*
X33945Y13646D01*
X31233Y14265D01*
X28608Y15183D01*
X26101Y16390D01*
X23746Y17870D01*
X21571Y19605D01*
X19605Y21571D01*
X17870Y23746D01*
X16390Y26101D01*
X15183Y28608D01*
X14265Y31233D01*
X13646Y33945D01*
X13464Y35561D01*
X35561Y35561D01*
X35561Y13464D01*
X33945Y13646D01*
G37*
%LPD*%
%LPC*%
G36*
X1231899Y965199D02*
X1231899Y965199D01*
X1231899Y965201D01*
X1231901Y965201D01*
X1231901Y965199D01*
X1231899Y965199D01*
G37*
%LPD*%
%LPC*%
G36*
X38099Y965199D02*
X38099Y965199D01*
X38099Y965201D01*
X38101Y965201D01*
X38101Y965199D01*
X38099Y965199D01*
G37*
%LPD*%
D10*
X447300Y427400D03*
D11*
X421900Y427400D03*
X447300Y452800D03*
X421900Y452800D03*
X447300Y478200D03*
X421900Y478200D03*
X447300Y503600D03*
X421900Y503600D03*
X447300Y529000D03*
X421900Y529000D03*
X447300Y554400D03*
X421900Y554400D03*
X447300Y579800D03*
X421900Y579800D03*
X447300Y605200D03*
X421900Y605200D03*
X447300Y630600D03*
X421900Y630600D03*
X447300Y656000D03*
X421900Y656000D03*
X447300Y681400D03*
X421900Y681400D03*
X447300Y706800D03*
X421900Y706800D03*
X447300Y732200D03*
X421900Y732200D03*
X447300Y757600D03*
X421900Y757600D03*
X447300Y783000D03*
X421900Y783000D03*
X447300Y808400D03*
X421900Y808400D03*
X447300Y833800D03*
X421900Y833800D03*
X447300Y859200D03*
X421900Y859200D03*
D10*
X193300Y427400D03*
D11*
X167900Y427400D03*
X193300Y452800D03*
X167900Y452800D03*
X193300Y478200D03*
X167900Y478200D03*
X193300Y503600D03*
X167900Y503600D03*
X193300Y529000D03*
X167900Y529000D03*
X193300Y554400D03*
X167900Y554400D03*
X193300Y579800D03*
X167900Y579800D03*
X193300Y605200D03*
X167900Y605200D03*
X193300Y630600D03*
X167900Y630600D03*
X193300Y656000D03*
X167900Y656000D03*
X193300Y681400D03*
X167900Y681400D03*
X193300Y706800D03*
X167900Y706800D03*
X193300Y732200D03*
X167900Y732200D03*
X193300Y757600D03*
X167900Y757600D03*
X193300Y783000D03*
X167900Y783000D03*
X193300Y808400D03*
X167900Y808400D03*
X193300Y833800D03*
X167900Y833800D03*
X193300Y859200D03*
X167900Y859200D03*
D12*
X673100Y889000D03*
D13*
X698500Y889000D03*
X723900Y889000D03*
X749300Y889000D03*
X774700Y889000D03*
X800100Y889000D03*
X825500Y889000D03*
X850900Y889000D03*
X876300Y889000D03*
X901700Y889000D03*
X927100Y889000D03*
X952500Y889000D03*
X977900Y889000D03*
X1003300Y889000D03*
X1028700Y889000D03*
X1054100Y889000D03*
X1079500Y889000D03*
X1104900Y889000D03*
X1130300Y889000D03*
X1155700Y889000D03*
D12*
X673100Y127000D03*
D13*
X698500Y127000D03*
X723900Y127000D03*
X749300Y127000D03*
X774700Y127000D03*
X800100Y127000D03*
X825500Y127000D03*
X850900Y127000D03*
X876300Y127000D03*
X901700Y127000D03*
X927100Y127000D03*
X952500Y127000D03*
X977900Y127000D03*
X1003300Y127000D03*
X1028700Y127000D03*
X1054100Y127000D03*
X1079500Y127000D03*
X1104900Y127000D03*
X1130300Y127000D03*
X1155700Y127000D03*
D14*
X628650Y127000D03*
X1200150Y127000D03*
X628650Y889000D03*
X1200150Y889000D03*
D15*
X557800Y190100D03*
X557800Y140100D03*
X432800Y140100D03*
X432800Y190100D03*
X367300Y190100D03*
X367300Y140100D03*
X242300Y140100D03*
X242300Y190100D03*
D16*
X404880Y279400D03*
X433320Y279400D03*
X239780Y279400D03*
X268220Y279400D03*
D17*
X38100Y38100D03*
X38100Y965200D03*
X1231900Y965200D03*
X1231900Y38100D03*
D18*
X38100Y876300D03*
X1231900Y88900D03*
X38100Y88900D03*
D19*
X168910Y139700D03*
X186690Y139700D03*
D20*
X381000Y279400D03*
D21*
X292100Y279400D02*
X268220Y279400D01*
D20*
X292100Y279400D03*
D21*
X381000Y279400D01*
X275000Y579800D02*
X193300Y579800D01*
X275000Y579800D02*
X279400Y584200D01*
X279400Y711200D01*
X417500Y711200D01*
X421900Y706800D01*
X163166Y568370D02*
X160036Y571500D01*
X139700Y571500D01*
X181870Y568370D02*
X193300Y579800D01*
X181870Y568370D02*
X163166Y568370D01*
X139700Y571500D02*
X139700Y508000D01*
X163166Y515030D02*
X172635Y515030D01*
X156136Y508000D02*
X139700Y508000D01*
X156136Y508000D02*
X163166Y515030D01*
X172635Y515030D02*
X175182Y512482D01*
X186018Y512482D01*
X181870Y508335D01*
X190500Y409572D02*
X190500Y317500D01*
X190500Y409572D02*
X181870Y418202D01*
X181870Y508335D01*
X190500Y317500D02*
X203200Y304800D01*
X266700Y304800D01*
X268220Y303280D01*
X268220Y279400D01*
X381000Y279400D02*
X404880Y279400D01*
X168910Y139700D02*
X139700Y139700D01*
D20*
X139700Y139700D03*
D21*
X193300Y605200D02*
X262300Y605200D01*
X266700Y609600D01*
D20*
X266700Y609600D03*
D21*
X167900Y503600D02*
X159600Y495300D01*
X127000Y495300D01*
X127000Y279400D01*
X239780Y279400D01*
X242300Y276880D01*
X242300Y190100D01*
X367300Y190100D01*
X179330Y517570D02*
X167900Y529000D01*
X342900Y482600D02*
X342900Y317500D01*
X355600Y304800D01*
X431800Y304800D01*
X433320Y303280D01*
X433320Y279400D01*
X307930Y517570D02*
X179330Y517570D01*
X307930Y517570D02*
X342900Y482600D01*
X433320Y279400D02*
X433320Y190620D01*
X432800Y190100D01*
X557800Y190100D01*
X431136Y478200D02*
X421900Y478200D01*
X431136Y478200D02*
X442566Y466770D01*
X485730Y466770D02*
X825500Y127000D01*
X485730Y466770D02*
X442566Y466770D01*
X850900Y127000D02*
X850900Y76200D01*
X685800Y76200D01*
X652540Y109460D01*
X652540Y136896D01*
X622300Y167136D01*
X423500Y452800D02*
X421900Y452800D01*
X423500Y452800D02*
X437470Y438830D01*
X456498Y438830D01*
X622300Y273028D01*
X622300Y167136D01*
X863600Y114300D02*
X876300Y127000D01*
X863600Y114300D02*
X863600Y63500D01*
X609600Y63500D01*
X596900Y76200D01*
X596900Y254000D01*
X423500Y427400D01*
X421900Y427400D01*
M02*
