G04 EAGLE Gerber RS-274X export*
G75*
%MOMM*%
%FSLAX34Y34*%
%LPD*%
%INSoldermask Top*%
%IPPOS*%
%AMOC8*
5,1,8,0,0,1.08239X$1,22.5*%
G01*
%ADD10R,1.676400X1.676400*%
%ADD11P,1.814519X8X112.500000*%
%ADD12R,1.828800X1.828800*%
%ADD13C,1.828800*%
%ADD14C,4.168400*%
%ADD15C,2.112400*%
%ADD16R,1.752400X1.955400*%
%ADD17C,4.597400*%
%ADD18C,0.609600*%
%ADD19C,1.168400*%
%ADD20R,1.295400X1.422400*%


D10*
X447300Y427400D03*
D11*
X421900Y427400D03*
X447300Y452800D03*
X421900Y452800D03*
X447300Y478200D03*
X421900Y478200D03*
X447300Y503600D03*
X421900Y503600D03*
X447300Y529000D03*
X421900Y529000D03*
X447300Y554400D03*
X421900Y554400D03*
X447300Y579800D03*
X421900Y579800D03*
X447300Y605200D03*
X421900Y605200D03*
X447300Y630600D03*
X421900Y630600D03*
X447300Y656000D03*
X421900Y656000D03*
X447300Y681400D03*
X421900Y681400D03*
X447300Y706800D03*
X421900Y706800D03*
X447300Y732200D03*
X421900Y732200D03*
X447300Y757600D03*
X421900Y757600D03*
X447300Y783000D03*
X421900Y783000D03*
X447300Y808400D03*
X421900Y808400D03*
X447300Y833800D03*
X421900Y833800D03*
X447300Y859200D03*
X421900Y859200D03*
D10*
X193300Y427400D03*
D11*
X167900Y427400D03*
X193300Y452800D03*
X167900Y452800D03*
X193300Y478200D03*
X167900Y478200D03*
X193300Y503600D03*
X167900Y503600D03*
X193300Y529000D03*
X167900Y529000D03*
X193300Y554400D03*
X167900Y554400D03*
X193300Y579800D03*
X167900Y579800D03*
X193300Y605200D03*
X167900Y605200D03*
X193300Y630600D03*
X167900Y630600D03*
X193300Y656000D03*
X167900Y656000D03*
X193300Y681400D03*
X167900Y681400D03*
X193300Y706800D03*
X167900Y706800D03*
X193300Y732200D03*
X167900Y732200D03*
X193300Y757600D03*
X167900Y757600D03*
X193300Y783000D03*
X167900Y783000D03*
X193300Y808400D03*
X167900Y808400D03*
X193300Y833800D03*
X167900Y833800D03*
X193300Y859200D03*
X167900Y859200D03*
D12*
X673100Y889000D03*
D13*
X698500Y889000D03*
X723900Y889000D03*
X749300Y889000D03*
X774700Y889000D03*
X800100Y889000D03*
X825500Y889000D03*
X850900Y889000D03*
X876300Y889000D03*
X901700Y889000D03*
X927100Y889000D03*
X952500Y889000D03*
X977900Y889000D03*
X1003300Y889000D03*
X1028700Y889000D03*
X1054100Y889000D03*
X1079500Y889000D03*
X1104900Y889000D03*
X1130300Y889000D03*
X1155700Y889000D03*
D12*
X673100Y127000D03*
D13*
X698500Y127000D03*
X723900Y127000D03*
X749300Y127000D03*
X774700Y127000D03*
X800100Y127000D03*
X825500Y127000D03*
X850900Y127000D03*
X876300Y127000D03*
X901700Y127000D03*
X927100Y127000D03*
X952500Y127000D03*
X977900Y127000D03*
X1003300Y127000D03*
X1028700Y127000D03*
X1054100Y127000D03*
X1079500Y127000D03*
X1104900Y127000D03*
X1130300Y127000D03*
X1155700Y127000D03*
D14*
X628650Y127000D03*
X1200150Y127000D03*
X628650Y889000D03*
X1200150Y889000D03*
D15*
X557800Y190100D03*
X557800Y140100D03*
X432800Y140100D03*
X432800Y190100D03*
X367300Y190100D03*
X367300Y140100D03*
X242300Y140100D03*
X242300Y190100D03*
D16*
X404880Y279400D03*
X433320Y279400D03*
X239780Y279400D03*
X268220Y279400D03*
D17*
X38100Y38100D03*
X38100Y965200D03*
X1231900Y965200D03*
X1231900Y38100D03*
D18*
X30480Y876300D02*
X30482Y876487D01*
X30489Y876674D01*
X30501Y876861D01*
X30517Y877047D01*
X30537Y877233D01*
X30562Y877418D01*
X30592Y877603D01*
X30626Y877787D01*
X30665Y877970D01*
X30708Y878152D01*
X30756Y878332D01*
X30808Y878512D01*
X30865Y878690D01*
X30925Y878867D01*
X30991Y879042D01*
X31060Y879216D01*
X31134Y879388D01*
X31212Y879558D01*
X31294Y879726D01*
X31380Y879892D01*
X31470Y880056D01*
X31564Y880217D01*
X31662Y880377D01*
X31764Y880533D01*
X31870Y880688D01*
X31980Y880839D01*
X32093Y880988D01*
X32210Y881134D01*
X32330Y881277D01*
X32454Y881417D01*
X32581Y881554D01*
X32712Y881688D01*
X32846Y881819D01*
X32983Y881946D01*
X33123Y882070D01*
X33266Y882190D01*
X33412Y882307D01*
X33561Y882420D01*
X33712Y882530D01*
X33867Y882636D01*
X34023Y882738D01*
X34183Y882836D01*
X34344Y882930D01*
X34508Y883020D01*
X34674Y883106D01*
X34842Y883188D01*
X35012Y883266D01*
X35184Y883340D01*
X35358Y883409D01*
X35533Y883475D01*
X35710Y883535D01*
X35888Y883592D01*
X36068Y883644D01*
X36248Y883692D01*
X36430Y883735D01*
X36613Y883774D01*
X36797Y883808D01*
X36982Y883838D01*
X37167Y883863D01*
X37353Y883883D01*
X37539Y883899D01*
X37726Y883911D01*
X37913Y883918D01*
X38100Y883920D01*
X38287Y883918D01*
X38474Y883911D01*
X38661Y883899D01*
X38847Y883883D01*
X39033Y883863D01*
X39218Y883838D01*
X39403Y883808D01*
X39587Y883774D01*
X39770Y883735D01*
X39952Y883692D01*
X40132Y883644D01*
X40312Y883592D01*
X40490Y883535D01*
X40667Y883475D01*
X40842Y883409D01*
X41016Y883340D01*
X41188Y883266D01*
X41358Y883188D01*
X41526Y883106D01*
X41692Y883020D01*
X41856Y882930D01*
X42017Y882836D01*
X42177Y882738D01*
X42333Y882636D01*
X42488Y882530D01*
X42639Y882420D01*
X42788Y882307D01*
X42934Y882190D01*
X43077Y882070D01*
X43217Y881946D01*
X43354Y881819D01*
X43488Y881688D01*
X43619Y881554D01*
X43746Y881417D01*
X43870Y881277D01*
X43990Y881134D01*
X44107Y880988D01*
X44220Y880839D01*
X44330Y880688D01*
X44436Y880533D01*
X44538Y880377D01*
X44636Y880217D01*
X44730Y880056D01*
X44820Y879892D01*
X44906Y879726D01*
X44988Y879558D01*
X45066Y879388D01*
X45140Y879216D01*
X45209Y879042D01*
X45275Y878867D01*
X45335Y878690D01*
X45392Y878512D01*
X45444Y878332D01*
X45492Y878152D01*
X45535Y877970D01*
X45574Y877787D01*
X45608Y877603D01*
X45638Y877418D01*
X45663Y877233D01*
X45683Y877047D01*
X45699Y876861D01*
X45711Y876674D01*
X45718Y876487D01*
X45720Y876300D01*
X45718Y876113D01*
X45711Y875926D01*
X45699Y875739D01*
X45683Y875553D01*
X45663Y875367D01*
X45638Y875182D01*
X45608Y874997D01*
X45574Y874813D01*
X45535Y874630D01*
X45492Y874448D01*
X45444Y874268D01*
X45392Y874088D01*
X45335Y873910D01*
X45275Y873733D01*
X45209Y873558D01*
X45140Y873384D01*
X45066Y873212D01*
X44988Y873042D01*
X44906Y872874D01*
X44820Y872708D01*
X44730Y872544D01*
X44636Y872383D01*
X44538Y872223D01*
X44436Y872067D01*
X44330Y871912D01*
X44220Y871761D01*
X44107Y871612D01*
X43990Y871466D01*
X43870Y871323D01*
X43746Y871183D01*
X43619Y871046D01*
X43488Y870912D01*
X43354Y870781D01*
X43217Y870654D01*
X43077Y870530D01*
X42934Y870410D01*
X42788Y870293D01*
X42639Y870180D01*
X42488Y870070D01*
X42333Y869964D01*
X42177Y869862D01*
X42017Y869764D01*
X41856Y869670D01*
X41692Y869580D01*
X41526Y869494D01*
X41358Y869412D01*
X41188Y869334D01*
X41016Y869260D01*
X40842Y869191D01*
X40667Y869125D01*
X40490Y869065D01*
X40312Y869008D01*
X40132Y868956D01*
X39952Y868908D01*
X39770Y868865D01*
X39587Y868826D01*
X39403Y868792D01*
X39218Y868762D01*
X39033Y868737D01*
X38847Y868717D01*
X38661Y868701D01*
X38474Y868689D01*
X38287Y868682D01*
X38100Y868680D01*
X37913Y868682D01*
X37726Y868689D01*
X37539Y868701D01*
X37353Y868717D01*
X37167Y868737D01*
X36982Y868762D01*
X36797Y868792D01*
X36613Y868826D01*
X36430Y868865D01*
X36248Y868908D01*
X36068Y868956D01*
X35888Y869008D01*
X35710Y869065D01*
X35533Y869125D01*
X35358Y869191D01*
X35184Y869260D01*
X35012Y869334D01*
X34842Y869412D01*
X34674Y869494D01*
X34508Y869580D01*
X34344Y869670D01*
X34183Y869764D01*
X34023Y869862D01*
X33867Y869964D01*
X33712Y870070D01*
X33561Y870180D01*
X33412Y870293D01*
X33266Y870410D01*
X33123Y870530D01*
X32983Y870654D01*
X32846Y870781D01*
X32712Y870912D01*
X32581Y871046D01*
X32454Y871183D01*
X32330Y871323D01*
X32210Y871466D01*
X32093Y871612D01*
X31980Y871761D01*
X31870Y871912D01*
X31764Y872067D01*
X31662Y872223D01*
X31564Y872383D01*
X31470Y872544D01*
X31380Y872708D01*
X31294Y872874D01*
X31212Y873042D01*
X31134Y873212D01*
X31060Y873384D01*
X30991Y873558D01*
X30925Y873733D01*
X30865Y873910D01*
X30808Y874088D01*
X30756Y874268D01*
X30708Y874448D01*
X30665Y874630D01*
X30626Y874813D01*
X30592Y874997D01*
X30562Y875182D01*
X30537Y875367D01*
X30517Y875553D01*
X30501Y875739D01*
X30489Y875926D01*
X30482Y876113D01*
X30480Y876300D01*
D19*
X38100Y876300D03*
D18*
X1224280Y88900D02*
X1224282Y89087D01*
X1224289Y89274D01*
X1224301Y89461D01*
X1224317Y89647D01*
X1224337Y89833D01*
X1224362Y90018D01*
X1224392Y90203D01*
X1224426Y90387D01*
X1224465Y90570D01*
X1224508Y90752D01*
X1224556Y90932D01*
X1224608Y91112D01*
X1224665Y91290D01*
X1224725Y91467D01*
X1224791Y91642D01*
X1224860Y91816D01*
X1224934Y91988D01*
X1225012Y92158D01*
X1225094Y92326D01*
X1225180Y92492D01*
X1225270Y92656D01*
X1225364Y92817D01*
X1225462Y92977D01*
X1225564Y93133D01*
X1225670Y93288D01*
X1225780Y93439D01*
X1225893Y93588D01*
X1226010Y93734D01*
X1226130Y93877D01*
X1226254Y94017D01*
X1226381Y94154D01*
X1226512Y94288D01*
X1226646Y94419D01*
X1226783Y94546D01*
X1226923Y94670D01*
X1227066Y94790D01*
X1227212Y94907D01*
X1227361Y95020D01*
X1227512Y95130D01*
X1227667Y95236D01*
X1227823Y95338D01*
X1227983Y95436D01*
X1228144Y95530D01*
X1228308Y95620D01*
X1228474Y95706D01*
X1228642Y95788D01*
X1228812Y95866D01*
X1228984Y95940D01*
X1229158Y96009D01*
X1229333Y96075D01*
X1229510Y96135D01*
X1229688Y96192D01*
X1229868Y96244D01*
X1230048Y96292D01*
X1230230Y96335D01*
X1230413Y96374D01*
X1230597Y96408D01*
X1230782Y96438D01*
X1230967Y96463D01*
X1231153Y96483D01*
X1231339Y96499D01*
X1231526Y96511D01*
X1231713Y96518D01*
X1231900Y96520D01*
X1232087Y96518D01*
X1232274Y96511D01*
X1232461Y96499D01*
X1232647Y96483D01*
X1232833Y96463D01*
X1233018Y96438D01*
X1233203Y96408D01*
X1233387Y96374D01*
X1233570Y96335D01*
X1233752Y96292D01*
X1233932Y96244D01*
X1234112Y96192D01*
X1234290Y96135D01*
X1234467Y96075D01*
X1234642Y96009D01*
X1234816Y95940D01*
X1234988Y95866D01*
X1235158Y95788D01*
X1235326Y95706D01*
X1235492Y95620D01*
X1235656Y95530D01*
X1235817Y95436D01*
X1235977Y95338D01*
X1236133Y95236D01*
X1236288Y95130D01*
X1236439Y95020D01*
X1236588Y94907D01*
X1236734Y94790D01*
X1236877Y94670D01*
X1237017Y94546D01*
X1237154Y94419D01*
X1237288Y94288D01*
X1237419Y94154D01*
X1237546Y94017D01*
X1237670Y93877D01*
X1237790Y93734D01*
X1237907Y93588D01*
X1238020Y93439D01*
X1238130Y93288D01*
X1238236Y93133D01*
X1238338Y92977D01*
X1238436Y92817D01*
X1238530Y92656D01*
X1238620Y92492D01*
X1238706Y92326D01*
X1238788Y92158D01*
X1238866Y91988D01*
X1238940Y91816D01*
X1239009Y91642D01*
X1239075Y91467D01*
X1239135Y91290D01*
X1239192Y91112D01*
X1239244Y90932D01*
X1239292Y90752D01*
X1239335Y90570D01*
X1239374Y90387D01*
X1239408Y90203D01*
X1239438Y90018D01*
X1239463Y89833D01*
X1239483Y89647D01*
X1239499Y89461D01*
X1239511Y89274D01*
X1239518Y89087D01*
X1239520Y88900D01*
X1239518Y88713D01*
X1239511Y88526D01*
X1239499Y88339D01*
X1239483Y88153D01*
X1239463Y87967D01*
X1239438Y87782D01*
X1239408Y87597D01*
X1239374Y87413D01*
X1239335Y87230D01*
X1239292Y87048D01*
X1239244Y86868D01*
X1239192Y86688D01*
X1239135Y86510D01*
X1239075Y86333D01*
X1239009Y86158D01*
X1238940Y85984D01*
X1238866Y85812D01*
X1238788Y85642D01*
X1238706Y85474D01*
X1238620Y85308D01*
X1238530Y85144D01*
X1238436Y84983D01*
X1238338Y84823D01*
X1238236Y84667D01*
X1238130Y84512D01*
X1238020Y84361D01*
X1237907Y84212D01*
X1237790Y84066D01*
X1237670Y83923D01*
X1237546Y83783D01*
X1237419Y83646D01*
X1237288Y83512D01*
X1237154Y83381D01*
X1237017Y83254D01*
X1236877Y83130D01*
X1236734Y83010D01*
X1236588Y82893D01*
X1236439Y82780D01*
X1236288Y82670D01*
X1236133Y82564D01*
X1235977Y82462D01*
X1235817Y82364D01*
X1235656Y82270D01*
X1235492Y82180D01*
X1235326Y82094D01*
X1235158Y82012D01*
X1234988Y81934D01*
X1234816Y81860D01*
X1234642Y81791D01*
X1234467Y81725D01*
X1234290Y81665D01*
X1234112Y81608D01*
X1233932Y81556D01*
X1233752Y81508D01*
X1233570Y81465D01*
X1233387Y81426D01*
X1233203Y81392D01*
X1233018Y81362D01*
X1232833Y81337D01*
X1232647Y81317D01*
X1232461Y81301D01*
X1232274Y81289D01*
X1232087Y81282D01*
X1231900Y81280D01*
X1231713Y81282D01*
X1231526Y81289D01*
X1231339Y81301D01*
X1231153Y81317D01*
X1230967Y81337D01*
X1230782Y81362D01*
X1230597Y81392D01*
X1230413Y81426D01*
X1230230Y81465D01*
X1230048Y81508D01*
X1229868Y81556D01*
X1229688Y81608D01*
X1229510Y81665D01*
X1229333Y81725D01*
X1229158Y81791D01*
X1228984Y81860D01*
X1228812Y81934D01*
X1228642Y82012D01*
X1228474Y82094D01*
X1228308Y82180D01*
X1228144Y82270D01*
X1227983Y82364D01*
X1227823Y82462D01*
X1227667Y82564D01*
X1227512Y82670D01*
X1227361Y82780D01*
X1227212Y82893D01*
X1227066Y83010D01*
X1226923Y83130D01*
X1226783Y83254D01*
X1226646Y83381D01*
X1226512Y83512D01*
X1226381Y83646D01*
X1226254Y83783D01*
X1226130Y83923D01*
X1226010Y84066D01*
X1225893Y84212D01*
X1225780Y84361D01*
X1225670Y84512D01*
X1225564Y84667D01*
X1225462Y84823D01*
X1225364Y84983D01*
X1225270Y85144D01*
X1225180Y85308D01*
X1225094Y85474D01*
X1225012Y85642D01*
X1224934Y85812D01*
X1224860Y85984D01*
X1224791Y86158D01*
X1224725Y86333D01*
X1224665Y86510D01*
X1224608Y86688D01*
X1224556Y86868D01*
X1224508Y87048D01*
X1224465Y87230D01*
X1224426Y87413D01*
X1224392Y87597D01*
X1224362Y87782D01*
X1224337Y87967D01*
X1224317Y88153D01*
X1224301Y88339D01*
X1224289Y88526D01*
X1224282Y88713D01*
X1224280Y88900D01*
D19*
X1231900Y88900D03*
D18*
X30480Y88900D02*
X30482Y89087D01*
X30489Y89274D01*
X30501Y89461D01*
X30517Y89647D01*
X30537Y89833D01*
X30562Y90018D01*
X30592Y90203D01*
X30626Y90387D01*
X30665Y90570D01*
X30708Y90752D01*
X30756Y90932D01*
X30808Y91112D01*
X30865Y91290D01*
X30925Y91467D01*
X30991Y91642D01*
X31060Y91816D01*
X31134Y91988D01*
X31212Y92158D01*
X31294Y92326D01*
X31380Y92492D01*
X31470Y92656D01*
X31564Y92817D01*
X31662Y92977D01*
X31764Y93133D01*
X31870Y93288D01*
X31980Y93439D01*
X32093Y93588D01*
X32210Y93734D01*
X32330Y93877D01*
X32454Y94017D01*
X32581Y94154D01*
X32712Y94288D01*
X32846Y94419D01*
X32983Y94546D01*
X33123Y94670D01*
X33266Y94790D01*
X33412Y94907D01*
X33561Y95020D01*
X33712Y95130D01*
X33867Y95236D01*
X34023Y95338D01*
X34183Y95436D01*
X34344Y95530D01*
X34508Y95620D01*
X34674Y95706D01*
X34842Y95788D01*
X35012Y95866D01*
X35184Y95940D01*
X35358Y96009D01*
X35533Y96075D01*
X35710Y96135D01*
X35888Y96192D01*
X36068Y96244D01*
X36248Y96292D01*
X36430Y96335D01*
X36613Y96374D01*
X36797Y96408D01*
X36982Y96438D01*
X37167Y96463D01*
X37353Y96483D01*
X37539Y96499D01*
X37726Y96511D01*
X37913Y96518D01*
X38100Y96520D01*
X38287Y96518D01*
X38474Y96511D01*
X38661Y96499D01*
X38847Y96483D01*
X39033Y96463D01*
X39218Y96438D01*
X39403Y96408D01*
X39587Y96374D01*
X39770Y96335D01*
X39952Y96292D01*
X40132Y96244D01*
X40312Y96192D01*
X40490Y96135D01*
X40667Y96075D01*
X40842Y96009D01*
X41016Y95940D01*
X41188Y95866D01*
X41358Y95788D01*
X41526Y95706D01*
X41692Y95620D01*
X41856Y95530D01*
X42017Y95436D01*
X42177Y95338D01*
X42333Y95236D01*
X42488Y95130D01*
X42639Y95020D01*
X42788Y94907D01*
X42934Y94790D01*
X43077Y94670D01*
X43217Y94546D01*
X43354Y94419D01*
X43488Y94288D01*
X43619Y94154D01*
X43746Y94017D01*
X43870Y93877D01*
X43990Y93734D01*
X44107Y93588D01*
X44220Y93439D01*
X44330Y93288D01*
X44436Y93133D01*
X44538Y92977D01*
X44636Y92817D01*
X44730Y92656D01*
X44820Y92492D01*
X44906Y92326D01*
X44988Y92158D01*
X45066Y91988D01*
X45140Y91816D01*
X45209Y91642D01*
X45275Y91467D01*
X45335Y91290D01*
X45392Y91112D01*
X45444Y90932D01*
X45492Y90752D01*
X45535Y90570D01*
X45574Y90387D01*
X45608Y90203D01*
X45638Y90018D01*
X45663Y89833D01*
X45683Y89647D01*
X45699Y89461D01*
X45711Y89274D01*
X45718Y89087D01*
X45720Y88900D01*
X45718Y88713D01*
X45711Y88526D01*
X45699Y88339D01*
X45683Y88153D01*
X45663Y87967D01*
X45638Y87782D01*
X45608Y87597D01*
X45574Y87413D01*
X45535Y87230D01*
X45492Y87048D01*
X45444Y86868D01*
X45392Y86688D01*
X45335Y86510D01*
X45275Y86333D01*
X45209Y86158D01*
X45140Y85984D01*
X45066Y85812D01*
X44988Y85642D01*
X44906Y85474D01*
X44820Y85308D01*
X44730Y85144D01*
X44636Y84983D01*
X44538Y84823D01*
X44436Y84667D01*
X44330Y84512D01*
X44220Y84361D01*
X44107Y84212D01*
X43990Y84066D01*
X43870Y83923D01*
X43746Y83783D01*
X43619Y83646D01*
X43488Y83512D01*
X43354Y83381D01*
X43217Y83254D01*
X43077Y83130D01*
X42934Y83010D01*
X42788Y82893D01*
X42639Y82780D01*
X42488Y82670D01*
X42333Y82564D01*
X42177Y82462D01*
X42017Y82364D01*
X41856Y82270D01*
X41692Y82180D01*
X41526Y82094D01*
X41358Y82012D01*
X41188Y81934D01*
X41016Y81860D01*
X40842Y81791D01*
X40667Y81725D01*
X40490Y81665D01*
X40312Y81608D01*
X40132Y81556D01*
X39952Y81508D01*
X39770Y81465D01*
X39587Y81426D01*
X39403Y81392D01*
X39218Y81362D01*
X39033Y81337D01*
X38847Y81317D01*
X38661Y81301D01*
X38474Y81289D01*
X38287Y81282D01*
X38100Y81280D01*
X37913Y81282D01*
X37726Y81289D01*
X37539Y81301D01*
X37353Y81317D01*
X37167Y81337D01*
X36982Y81362D01*
X36797Y81392D01*
X36613Y81426D01*
X36430Y81465D01*
X36248Y81508D01*
X36068Y81556D01*
X35888Y81608D01*
X35710Y81665D01*
X35533Y81725D01*
X35358Y81791D01*
X35184Y81860D01*
X35012Y81934D01*
X34842Y82012D01*
X34674Y82094D01*
X34508Y82180D01*
X34344Y82270D01*
X34183Y82364D01*
X34023Y82462D01*
X33867Y82564D01*
X33712Y82670D01*
X33561Y82780D01*
X33412Y82893D01*
X33266Y83010D01*
X33123Y83130D01*
X32983Y83254D01*
X32846Y83381D01*
X32712Y83512D01*
X32581Y83646D01*
X32454Y83783D01*
X32330Y83923D01*
X32210Y84066D01*
X32093Y84212D01*
X31980Y84361D01*
X31870Y84512D01*
X31764Y84667D01*
X31662Y84823D01*
X31564Y84983D01*
X31470Y85144D01*
X31380Y85308D01*
X31294Y85474D01*
X31212Y85642D01*
X31134Y85812D01*
X31060Y85984D01*
X30991Y86158D01*
X30925Y86333D01*
X30865Y86510D01*
X30808Y86688D01*
X30756Y86868D01*
X30708Y87048D01*
X30665Y87230D01*
X30626Y87413D01*
X30592Y87597D01*
X30562Y87782D01*
X30537Y87967D01*
X30517Y88153D01*
X30501Y88339D01*
X30489Y88526D01*
X30482Y88713D01*
X30480Y88900D01*
D19*
X38100Y88900D03*
D20*
X168910Y139700D03*
X186690Y139700D03*
M02*
