M48
;GenerationSoftware,Autodesk,EAGLE,9.6.2*%
;CreationDate,2023-12-12T01:11:29Z*%
FMAT,2
ICI,OFF
METRIC,TZ,000.000
T6C0.305
T5C0.889
T4C1.000
T3C1.400
T2C3.000
T1C3.175
%
G90
M71
T1
X123190Y3810
X3810Y3810
X3810Y96520
X123190Y96520
T2
X62865Y12700
X120015Y12700
X62865Y88900
X120015Y88900
T3
X36730Y19010
X55780Y19010
X55780Y14010
X43280Y14010
X43280Y19010
X36730Y14010
X24230Y14010
X24230Y19010
T4
X102870Y88900
X105410Y88900
X107950Y88900
X110490Y88900
X113030Y88900
X115570Y88900
X67310Y12700
X69850Y12700
X72390Y12700
X77470Y12700
X80010Y12700
X82550Y12700
X80010Y88900
X87630Y12700
X90170Y12700
X92710Y12700
X95250Y12700
X97790Y12700
X100330Y12700
X102870Y12700
X105410Y12700
X107950Y12700
X110490Y12700
X113030Y12700
X67310Y88900
X74930Y88900
X72390Y88900
X69850Y88900
X74930Y12700
X82550Y88900
X77470Y88900
X85090Y88900
X85090Y12700
X87630Y88900
X90170Y88900
X92710Y88900
X95250Y88900
X97790Y88900
X100330Y88900
X115570Y12700
T5
X19330Y63060
X16790Y63060
X19330Y65600
X16790Y65600
X19330Y68140
X16790Y68140
X19330Y70680
X16790Y70680
X19330Y73220
X16790Y73220
X44730Y78300
X16790Y75760
X19330Y78300
X16790Y78300
X19330Y80840
X16790Y80840
X19330Y83380
X16790Y83380
X19330Y85920
X16790Y85920
X44730Y57980
X44730Y42740
X19330Y75760
X42190Y42740
X44730Y45280
X42190Y45280
X44730Y47820
X42190Y47820
X44730Y50360
X42190Y50360
X44730Y52900
X42190Y52900
X44730Y55440
X42190Y55440
X42190Y57980
X44730Y60520
X42190Y60520
X44730Y63060
X42190Y63060
X44730Y65600
X42190Y65600
X44730Y68140
X42190Y68140
X44730Y70680
X42190Y70680
X44730Y73220
X42190Y73220
X44730Y75760
X42190Y75760
X42190Y78300
X44730Y80840
X42190Y80840
X44730Y83380
X42190Y83380
X44730Y85920
X19330Y55440
X42190Y85920
X19330Y42740
X16790Y42740
X19330Y45280
X16790Y45280
X19330Y47820
X16790Y47820
X19330Y50360
X16790Y50360
X19330Y52900
X16790Y52900
X16790Y55440
X19330Y57980
X16790Y57980
X19330Y60520
X16790Y60520
T6
X38100Y27940
X26670Y60960
X13970Y13970
X29210Y27940
M30